<svg width="227" height="106" viewBox="0 0 227 106" fill="none" xmlns="http://www.w3.org/2000/svg">
<path d="M16.2739 59.8069L6.20312 43.5225L9.56018 37.8606L23.1889 59.8069H16.2739Z" fill="#0893DA"/>
<path d="M26.4332 59.6772L11.2944 35.1422L14.7243 29.3263L33.1625 59.6772H26.4332Z" fill="#0893DA"/>
<path d="M19.9643 20.9839L16.4463 26.6318L36.5671 59.6772H39.6341L42.0719 57.0897L19.9643 20.9839Z" fill="#0893DA"/>
<path d="M26.0338 25.5705L23.1889 20.9839H28.8145L26.0338 25.5705Z" fill="#0893DA"/>
<path d="M7.65289 59.8069H13.1754L10.3665 55.369L7.65289 59.8069Z" fill="#0893DA"/>
<path d="M62.9746 21.1907L82.7691 21.1907L85.9983 26.5521L59.9548 26.5521L62.9746 21.1907Z" fill="#0893DA"/>
<path d="M58.0945 29.5076L87.6433 29.5076L91.1089 34.8381L54.7355 34.8381L58.0945 29.5076Z" fill="#0893DA"/>
<path d="M96.4532 43.6264L92.9388 38.0861L52.8048 38.0861L51.2283 40.6246L52.8048 43.8044L96.4532 43.6264Z" fill="#0893DA"/>
<path d="M89.3957 46.4666L94.7924 46.3904L92.0505 50.968L89.3957 46.4666Z" fill="#0893DA"/>
<path d="M86.4838 46.8739L96.2035 62.9034L92.7831 68.2662L79.6333 46.8739L86.4838 46.8739Z" fill="#0893DA"/>
<path d="M76.3013 46.8739L90.8088 71.5959L87.9505 76.6642L69.6373 46.8739L76.3013 46.8739Z" fill="#0893DA"/>
<path d="M82.5838 85.4626L85.4876 79.8819L65.8198 46.8739L62.699 46.8739L60.4585 49.3945L82.5838 85.4626Z" fill="#0893DA"/>
<path d="M76.5981 80.9281L79.335 85.58L74.0003 85.4626L76.5981 80.9281Z" fill="#0893DA"/>
<path d="M27.9103 27.7462L37.5162 11.5172L44.2618 11.3956L31.2831 33.0728L27.9103 27.7462Z" fill="#0893DA"/>
<path d="M33.1641 35.7765L47.9943 11.3956L54.5527 11.5173L36.3328 41.0798L33.1641 35.7765Z" fill="#0893DA"/>
<path d="M65.0971 11.3956L58.2177 11.5173L38.1705 44.3876L39.6828 47.009L42.9338 47.296L65.0971 11.3956Z" fill="#0893DA"/>
<path d="M64.1021 18.6369L66.6513 14.1168L69.4359 18.6369L64.1021 18.6369Z" fill="#0893DA"/>
<path d="M74.5796 78.5727L64.8135 94.7058L58.0669 94.7605L71.2597 73.2129L74.5796 78.5727Z" fill="#0893DA"/>
<path d="M69.4055 70.4907L54.3347 94.7236L47.7777 94.537L66.2895 65.1563L69.4055 70.4907Z" fill="#0893DA"/>
<path d="M37.2326 94.5542L44.113 94.5007L64.3085 61.8076L62.8414 59.4003L59.6792 58.9873L37.2326 94.5542Z" fill="#0893DA"/>
<path d="M38.4296 87.5371L35.6797 92.2761L33.1016 87.5374L38.4296 87.5371Z" fill="#0893DA"/>
<path d="M39.6054 85.2053L20.0996 85.2053L17.0791 79.9862L42.5096 79.9862L39.6054 85.2053Z" fill="#0893DA"/>
<path d="M44.6266 76.5315L14.6035 76.5315L11.4246 71.2043L47.884 71.2043L44.6266 76.5315Z" fill="#0893DA"/>
<path d="M6.18403 62.733L9.50135 68.0991L49.8325 68.0991L51.1235 65.5108L49.8325 62.733L6.18403 62.733Z" fill="#0893DA"/>
<path d="M119.094 16.58V44.5H113.494V16.58H119.094ZM139.667 30.18C141.241 30.4733 142.534 31.26 143.547 32.54C144.561 33.82 145.067 35.2867 145.067 36.94C145.067 38.4333 144.694 39.7533 143.947 40.9C143.227 42.02 142.174 42.9 140.787 43.54C139.401 44.18 137.761 44.5 135.867 44.5H123.827V16.58H135.347C137.241 16.58 138.867 16.8867 140.227 17.5C141.614 18.1133 142.654 18.9667 143.347 20.06C144.067 21.1533 144.427 22.3933 144.427 23.78C144.427 25.4067 143.987 26.7667 143.107 27.86C142.254 28.9533 141.107 29.7267 139.667 30.18ZM129.427 28.1H134.547C135.881 28.1 136.907 27.8067 137.627 27.22C138.347 26.6067 138.707 25.74 138.707 24.62C138.707 23.5 138.347 22.6333 137.627 22.02C136.907 21.4067 135.881 21.1 134.547 21.1H129.427V28.1ZM135.067 39.94C136.427 39.94 137.481 39.62 138.227 38.98C139.001 38.34 139.387 37.4333 139.387 36.26C139.387 35.06 138.987 34.1267 138.187 33.46C137.387 32.7667 136.307 32.42 134.947 32.42H129.427V39.94H135.067ZM154.33 21.1V28.1H163.73V32.54H154.33V39.94H164.93V44.5H148.73V16.54H164.93V21.1H154.33ZM183.619 44.5L177.459 33.62H174.819V44.5H169.219V16.58H179.699C181.859 16.58 183.699 16.9667 185.219 17.74C186.739 18.4867 187.873 19.5133 188.619 20.82C189.393 22.1 189.779 23.54 189.779 25.14C189.779 26.98 189.246 28.6467 188.179 30.14C187.113 31.6067 185.526 32.62 183.419 33.18L190.099 44.5H183.619ZM174.819 29.42H179.499C181.019 29.42 182.153 29.06 182.899 28.34C183.646 27.5933 184.019 26.5667 184.019 25.26C184.019 23.98 183.646 22.9933 182.899 22.3C182.153 21.58 181.019 21.22 179.499 21.22H174.819V29.42ZM207.004 44.78C204.391 44.78 201.991 44.1667 199.804 42.94C197.618 41.7133 195.884 40.02 194.604 37.86C193.324 35.6733 192.684 33.2067 192.684 30.46C192.684 27.74 193.324 25.3 194.604 23.14C195.884 20.9533 197.618 19.2467 199.804 18.02C201.991 16.7933 204.391 16.18 207.004 16.18C209.644 16.18 212.044 16.7933 214.204 18.02C216.391 19.2467 218.111 20.9533 219.364 23.14C220.644 25.3 221.284 27.74 221.284 30.46C221.284 33.2067 220.644 35.6733 219.364 37.86C218.111 40.02 216.391 41.7133 214.204 42.94C212.018 44.1667 209.618 44.78 207.004 44.78ZM207.004 39.78C208.684 39.78 210.164 39.4067 211.444 38.66C212.724 37.8867 213.724 36.7933 214.444 35.38C215.164 33.9667 215.524 32.3267 215.524 30.46C215.524 28.5933 215.164 26.9667 214.444 25.58C213.724 24.1667 212.724 23.0867 211.444 22.34C210.164 21.5933 208.684 21.22 207.004 21.22C205.324 21.22 203.831 21.5933 202.524 22.34C201.244 23.0867 200.244 24.1667 199.524 25.58C198.804 26.9667 198.444 28.5933 198.444 30.46C198.444 32.3267 198.804 33.9667 199.524 35.38C200.244 36.7933 201.244 37.8867 202.524 38.66C203.831 39.4067 205.324 39.78 207.004 39.78ZM133.854 70.22C133.854 71.7133 133.494 73.1133 132.774 74.42C132.081 75.7267 130.974 76.78 129.454 77.58C127.961 78.38 126.068 78.78 123.774 78.78H119.094V89.5H113.494V61.58H123.774C125.934 61.58 127.774 61.9533 129.294 62.7C130.814 63.4467 131.948 64.4733 132.694 65.78C133.468 67.0867 133.854 68.5667 133.854 70.22ZM123.534 74.26C125.081 74.26 126.228 73.9133 126.974 73.22C127.721 72.5 128.094 71.5 128.094 70.22C128.094 67.5 126.574 66.14 123.534 66.14H119.094V74.26H123.534ZM142.63 85.06H151.83V89.5H137.03V61.58H142.63V85.06ZM171.71 84.18H160.59L158.75 89.5H152.87L162.91 61.54H169.43L179.47 89.5H173.55L171.71 84.18ZM170.19 79.7L166.15 68.02L162.11 79.7H170.19ZM192.062 89.78C190.116 89.78 188.356 89.4467 186.782 88.78C185.236 88.1133 184.009 87.1533 183.102 85.9C182.196 84.6467 181.729 83.1667 181.702 81.46H187.702C187.782 82.6067 188.182 83.5133 188.902 84.18C189.649 84.8467 190.662 85.18 191.942 85.18C193.249 85.18 194.276 84.8733 195.022 84.26C195.769 83.62 196.142 82.7933 196.142 81.78C196.142 80.9533 195.889 80.2733 195.382 79.74C194.876 79.2067 194.236 78.7933 193.462 78.5C192.716 78.18 191.676 77.8333 190.342 77.46C188.529 76.9267 187.049 76.4067 185.902 75.9C184.782 75.3667 183.809 74.58 182.982 73.54C182.182 72.4733 181.782 71.06 181.782 69.3C181.782 67.6467 182.196 66.2067 183.022 64.98C183.849 63.7533 185.009 62.82 186.502 62.18C187.996 61.5133 189.702 61.18 191.622 61.18C194.502 61.18 196.836 61.8867 198.622 63.3C200.436 64.6867 201.436 66.6333 201.622 69.14H195.462C195.409 68.18 194.996 67.3933 194.222 66.78C193.476 66.14 192.476 65.82 191.222 65.82C190.129 65.82 189.249 66.1 188.582 66.66C187.942 67.22 187.622 68.0333 187.622 69.1C187.622 69.8467 187.862 70.4733 188.342 70.98C188.849 71.46 189.462 71.86 190.182 72.18C190.929 72.4733 191.969 72.82 193.302 73.22C195.116 73.7533 196.596 74.2867 197.742 74.82C198.889 75.3533 199.876 76.1533 200.702 77.22C201.529 78.2867 201.943 79.6867 201.943 81.42C201.943 82.9133 201.556 84.3 200.782 85.58C200.009 86.86 198.876 87.8867 197.382 88.66C195.889 89.4067 194.116 89.78 192.062 89.78ZM224.998 61.58V66.1H217.558V89.5H211.958V66.1H204.518V61.58H224.998Z" fill="#0893DA"/>
</svg>
