<svg width="241" height="106" viewBox="0 0 241 106" fill="none" xmlns="http://www.w3.org/2000/svg">
<circle cx="15.3642" cy="27.2383" r="10.2041" fill="#E5E271"/>
<circle cx="67.2627" cy="27.2383" r="10.2041" fill="#E5E271"/>
<circle cx="67.2627" cy="78.6059" r="10.2041" fill="#E5E271"/>
<circle cx="15.3642" cy="78.6059" r="10.2041" fill="#E5E271"/>
<circle cx="12.2244" cy="52.9232" r="11.8143" fill="#76B82D"/>
<circle cx="71.2869" cy="52.9232" r="11.8143" fill="#76B82D"/>
<circle cx="41.3143" cy="82.6849" r="11.8143" fill="#76B82D"/>
<circle cx="41.3143" cy="23.3152" r="11.8143" fill="#76B82D"/>
<circle cx="41.7543" cy="52.9999" r="12.602" fill="#26542D"/>
<path d="M113.302 41C113.435 41 113.542 41.0533 113.622 41.16C113.728 41.24 113.782 41.3467 113.782 41.48V46.24C113.782 46.3733 113.728 46.4933 113.622 46.6C113.542 46.68 113.435 46.72 113.302 46.72H106.302C106.168 46.72 106.102 46.7867 106.102 46.92V68.52C106.102 68.6533 106.048 68.7733 105.942 68.88C105.862 68.96 105.755 69 105.622 69H99.9416C99.8082 69 99.6882 68.96 99.5816 68.88C99.5016 68.7733 99.4616 68.6533 99.4616 68.52V46.92C99.4616 46.7867 99.3949 46.72 99.2616 46.72H92.5016C92.3682 46.72 92.2482 46.68 92.1416 46.6C92.0616 46.4933 92.0216 46.3733 92.0216 46.24V41.48C92.0216 41.3467 92.0616 41.24 92.1416 41.16C92.2482 41.0533 92.3682 41 92.5016 41H113.302ZM127.314 69.44C125.154 69.44 123.247 69.0133 121.594 68.16C119.967 67.28 118.701 66.0533 117.794 64.48C116.887 62.9067 116.434 61.08 116.434 59V51C116.434 48.9733 116.887 47.1867 117.794 45.64C118.701 44.0667 119.967 42.8533 121.594 42C123.247 41.12 125.154 40.68 127.314 40.68C129.474 40.68 131.381 41.12 133.034 42C134.687 42.8533 135.967 44.0667 136.874 45.64C137.781 47.1867 138.234 48.9733 138.234 51V59C138.234 61.08 137.781 62.9067 136.874 64.48C135.967 66.0533 134.687 67.28 133.034 68.16C131.381 69.0133 129.474 69.44 127.314 69.44ZM127.314 63.76C128.594 63.76 129.621 63.3467 130.394 62.52C131.194 61.6933 131.594 60.5867 131.594 59.2V50.92C131.594 49.56 131.194 48.4667 130.394 47.64C129.621 46.7867 128.594 46.36 127.314 46.36C126.061 46.36 125.034 46.7867 124.234 47.64C123.461 48.4667 123.074 49.56 123.074 50.92V59.2C123.074 60.5867 123.461 61.6933 124.234 62.52C125.034 63.3467 126.061 63.76 127.314 63.76ZM162.645 41C162.779 41 162.885 41.0533 162.965 41.16C163.072 41.24 163.125 41.3467 163.125 41.48V46.24C163.125 46.3733 163.072 46.4933 162.965 46.6C162.885 46.68 162.779 46.72 162.645 46.72H155.645C155.512 46.72 155.445 46.7867 155.445 46.92V68.52C155.445 68.6533 155.392 68.7733 155.285 68.88C155.205 68.96 155.099 69 154.965 69H149.285C149.152 69 149.032 68.96 148.925 68.88C148.845 68.7733 148.805 68.6533 148.805 68.52V46.92C148.805 46.7867 148.739 46.72 148.605 46.72H141.845C141.712 46.72 141.592 46.68 141.485 46.6C141.405 46.4933 141.365 46.3733 141.365 46.24V41.48C141.365 41.3467 141.405 41.24 141.485 41.16C141.592 41.0533 141.712 41 141.845 41H162.645ZM187.239 41C187.372 41 187.479 41.0533 187.559 41.16C187.666 41.24 187.719 41.3467 187.719 41.48V46.24C187.719 46.3733 187.666 46.4933 187.559 46.6C187.479 46.68 187.372 46.72 187.239 46.72H180.239C180.106 46.72 180.039 46.7867 180.039 46.92V68.52C180.039 68.6533 179.986 68.7733 179.879 68.88C179.799 68.96 179.692 69 179.559 69H173.879C173.746 69 173.626 68.96 173.519 68.88C173.439 68.7733 173.399 68.6533 173.399 68.52V46.92C173.399 46.7867 173.332 46.72 173.199 46.72H166.439C166.306 46.72 166.186 46.68 166.079 46.6C165.999 46.4933 165.959 46.3733 165.959 46.24V41.48C165.959 41.3467 165.999 41.24 166.079 41.16C166.186 41.0533 166.306 41 166.439 41H187.239ZM202.113 69.32C200.006 69.32 198.139 68.92 196.513 68.12C194.913 67.2933 193.659 66.1333 192.753 64.64C191.873 63.1467 191.433 61.4267 191.433 59.48V41.48C191.433 41.3467 191.473 41.24 191.553 41.16C191.659 41.0533 191.779 41 191.913 41H197.593C197.726 41 197.833 41.0533 197.913 41.16C198.019 41.24 198.073 41.3467 198.073 41.48V59.48C198.073 60.7333 198.433 61.7467 199.153 62.52C199.899 63.2667 200.886 63.64 202.113 63.64C203.313 63.64 204.273 63.2667 204.993 62.52C205.739 61.7467 206.113 60.7333 206.113 59.48V41.48C206.113 41.3467 206.153 41.24 206.233 41.16C206.339 41.0533 206.459 41 206.593 41H212.273C212.406 41 212.513 41.0533 212.593 41.16C212.699 41.24 212.753 41.3467 212.753 41.48V59.48C212.753 61.4267 212.313 63.1467 211.433 64.64C210.553 66.1333 209.299 67.2933 207.673 68.12C206.073 68.92 204.219 69.32 202.113 69.32ZM227.675 69.32C225.461 69.32 223.528 68.9733 221.875 68.28C220.248 67.56 218.981 66.5467 218.075 65.24C217.195 63.9067 216.755 62.3733 216.755 60.64V59.88C216.755 59.7467 216.795 59.64 216.875 59.56C216.981 59.4533 217.101 59.4 217.235 59.4H222.795C222.928 59.4 223.035 59.4533 223.115 59.56C223.221 59.64 223.275 59.7467 223.275 59.88V60.36C223.275 61.24 223.715 62.0133 224.595 62.68C225.475 63.32 226.661 63.64 228.155 63.64C229.328 63.64 230.195 63.3867 230.755 62.88C231.315 62.3733 231.595 61.7867 231.595 61.12C231.595 60.5867 231.421 60.16 231.075 59.84C230.755 59.4933 230.315 59.2133 229.755 59C229.195 58.76 228.328 58.44 227.155 58.04C226.995 57.96 226.835 57.9067 226.675 57.88C226.515 57.8267 226.368 57.7733 226.235 57.72C224.501 57.16 222.995 56.56 221.715 55.92C220.435 55.2533 219.341 54.3467 218.435 53.2C217.528 52.0267 217.075 50.5867 217.075 48.88C217.075 47.2267 217.501 45.7867 218.355 44.56C219.235 43.3067 220.448 42.3467 221.995 41.68C223.541 41.0133 225.288 40.68 227.235 40.68C229.288 40.68 231.128 41.0533 232.755 41.8C234.408 42.5467 235.701 43.6 236.635 44.96C237.568 46.32 238.035 47.88 238.035 49.64V50.2C238.035 50.3333 237.981 50.4533 237.875 50.56C237.795 50.64 237.688 50.68 237.555 50.68H231.995C231.861 50.68 231.741 50.64 231.635 50.56C231.555 50.4533 231.515 50.3333 231.515 50.2V49.92C231.515 48.9867 231.101 48.16 230.275 47.44C229.448 46.72 228.341 46.36 226.955 46.36C225.915 46.36 225.101 46.5733 224.515 47C223.928 47.4267 223.635 48.0267 223.635 48.8C223.635 49.3867 223.821 49.88 224.195 50.28C224.568 50.6533 225.141 51.0133 225.915 51.36C226.715 51.68 227.928 52.1067 229.555 52.64C231.421 53.28 232.875 53.84 233.915 54.32C234.955 54.8 235.928 55.5867 236.835 56.68C237.768 57.7467 238.235 59.16 238.235 60.92C238.235 62.6533 237.795 64.1467 236.915 65.4C236.035 66.6533 234.795 67.6267 233.195 68.32C231.621 68.9867 229.781 69.32 227.675 69.32Z" fill="#76B82D"/>
</svg>
