<svg width="219" height="88" viewBox="0 0 219 88" fill="none" xmlns="http://www.w3.org/2000/svg">
<path d="M88.8884 3.76367H79.9824L46.4258 87.8937H88.8884V3.76367Z" fill="#213B8C"/>
<path d="M59.4689 16.1681L59.1508 1.06006L21.7773 48.4528L31.4785 65.3102L59.4689 16.1681Z" fill="#213B8C"/>
<path d="M17.7998 50.2023H0.464844L44.6768 0.105957H57.2407L17.7998 50.2023Z" fill="#213B8C"/>
<path d="M76.9608 5.354C71.6596 9.06484 60.9618 16.6456 60.5801 17.2817C51.8861 32.9732 34.371 64.6426 33.862 65.7877C33.3531 66.9327 46.4789 66.2648 53.1054 65.7877L76.9608 5.354Z" fill="#213B8C"/>
<path d="M113.038 41C112.681 41 112.351 40.9197 112.047 40.759C111.762 40.5983 111.619 40.3661 111.619 40.0626V22.8415C111.619 22.3058 111.762 21.9398 112.047 21.7434C112.351 21.5291 112.681 21.422 113.038 21.422C113.377 21.422 113.672 21.4756 113.922 21.5827C114.172 21.672 114.404 21.8327 114.618 22.0648C114.833 22.2969 115.056 22.6183 115.288 23.029L119.038 30.1263L122.841 23.029C123.073 22.6183 123.287 22.2969 123.483 22.0648C123.698 21.8327 123.93 21.672 124.18 21.5827C124.43 21.4756 124.724 21.422 125.064 21.422C125.439 21.422 125.769 21.5291 126.055 21.7434C126.34 21.9398 126.483 22.3058 126.483 22.8415V40.0626C126.483 40.3661 126.331 40.5983 126.028 40.759C125.742 40.9197 125.421 41 125.064 41C124.706 41 124.376 40.9197 124.073 40.759C123.787 40.5983 123.644 40.3661 123.644 40.0626V27.207L120.055 33.8491C119.912 34.0812 119.752 34.2508 119.573 34.3579C119.395 34.4472 119.207 34.4919 119.011 34.4919C118.85 34.4919 118.68 34.4472 118.502 34.3579C118.323 34.2687 118.172 34.099 118.047 33.8491L114.458 27.0463V40.0626C114.458 40.3661 114.306 40.5983 114.002 40.759C113.717 40.9197 113.395 41 113.038 41ZM137.023 41.1607C135.88 41.1607 134.853 40.9643 133.943 40.5715C133.05 40.1787 132.336 39.5448 131.8 38.6699C131.282 37.795 131.023 36.6345 131.023 35.1882V27.3945C131.023 25.9483 131.282 24.7877 131.8 23.9128C132.336 23.0379 133.05 22.404 133.943 22.0112C134.853 21.6184 135.88 21.422 137.023 21.422C138.147 21.422 139.165 21.6184 140.076 22.0112C140.986 22.404 141.71 23.0379 142.245 23.9128C142.781 24.7877 143.049 25.9483 143.049 27.3945V35.1882C143.049 36.6345 142.781 37.795 142.245 38.6699C141.71 39.5448 140.986 40.1787 140.076 40.5715C139.165 40.9643 138.147 41.1607 137.023 41.1607ZM137.023 38.6431C138.005 38.6431 138.781 38.3664 139.353 37.8129C139.924 37.2415 140.21 36.3666 140.21 35.1882V27.3945C140.21 26.2161 139.924 25.3501 139.353 24.7966C138.799 24.2252 138.022 23.9396 137.023 23.9396C136.023 23.9396 135.237 24.2252 134.666 24.7966C134.112 25.3501 133.835 26.2161 133.835 27.3945V35.1882C133.835 36.3666 134.112 37.2415 134.666 37.8129C135.237 38.3664 136.023 38.6431 137.023 38.6431ZM148.845 41C148.47 41 148.166 40.9107 147.934 40.7322C147.702 40.5536 147.586 40.3394 147.586 40.0894V22.3594C147.586 22.0559 147.72 21.8237 147.987 21.6631C148.255 21.5024 148.541 21.422 148.845 21.422H153.719C154.683 21.422 155.576 21.547 156.397 21.797C157.219 22.0469 157.879 22.5112 158.379 23.1897C158.879 23.8503 159.129 24.8055 159.129 26.0554C159.129 27.1802 158.924 28.1087 158.513 28.8408C158.12 29.5728 157.567 30.0906 156.852 30.3941C157.406 30.6084 157.888 30.8941 158.299 31.2512C158.709 31.5904 159.031 32.0547 159.263 32.6439C159.495 33.2152 159.611 33.9562 159.611 34.8668V35.3757C159.611 36.7505 159.379 37.8486 158.915 38.6699C158.451 39.4913 157.817 40.0894 157.013 40.4644C156.21 40.8215 155.299 41 154.281 41H148.845ZM150.398 38.4824H153.746C154.71 38.4824 155.451 38.2236 155.969 37.7058C156.504 37.1701 156.772 36.322 156.772 35.1614V34.7329C156.772 33.5545 156.504 32.7242 155.969 32.2421C155.451 31.76 154.71 31.519 153.746 31.519H150.398V38.4824ZM150.398 29.2693H153.612C154.522 29.2693 155.192 29.0372 155.62 28.5729C156.067 28.1087 156.29 27.4213 156.29 26.5107C156.29 25.9036 156.174 25.4126 155.942 25.0376C155.728 24.6627 155.415 24.3859 155.004 24.2074C154.594 24.0288 154.112 23.9396 153.558 23.9396H150.398V29.2693ZM165.014 41C164.657 41 164.327 40.9197 164.023 40.759C163.737 40.5983 163.595 40.3661 163.595 40.0626V22.3326C163.595 22.0112 163.737 21.7791 164.023 21.6363C164.327 21.4934 164.657 21.422 165.014 21.422C165.371 21.422 165.693 21.4934 165.978 21.6363C166.282 21.7791 166.433 22.0112 166.433 22.3326V40.0626C166.433 40.3661 166.282 40.5983 165.978 40.759C165.693 40.9197 165.371 41 165.014 41ZM172.44 41C172.137 41 171.851 40.9197 171.583 40.759C171.315 40.5983 171.182 40.3661 171.182 40.0626V22.3326C171.182 22.0112 171.324 21.7791 171.61 21.6363C171.914 21.4934 172.244 21.422 172.601 21.422C172.958 21.422 173.279 21.4934 173.565 21.6363C173.869 21.7791 174.02 22.0112 174.02 22.3326V38.4824H180.984C181.27 38.4824 181.484 38.6164 181.627 38.8842C181.77 39.1342 181.841 39.4198 181.841 39.7412C181.841 40.0448 181.77 40.3304 181.627 40.5983C181.484 40.8661 181.27 41 180.984 41H172.44ZM186.517 41C186.16 41 185.83 40.9197 185.526 40.759C185.241 40.5983 185.098 40.3661 185.098 40.0626V22.3326C185.098 22.0112 185.241 21.7791 185.526 21.6363C185.83 21.4934 186.16 21.422 186.517 21.422C186.875 21.422 187.196 21.4934 187.482 21.6363C187.785 21.7791 187.937 22.0112 187.937 22.3326V40.0626C187.937 40.3661 187.785 40.5983 187.482 40.759C187.196 40.9197 186.875 41 186.517 41ZM193.033 41C192.783 41 192.515 40.9464 192.23 40.8393C191.944 40.7322 191.712 40.5983 191.533 40.4376C191.355 40.259 191.265 40.0537 191.265 39.8216C191.265 39.768 191.274 39.6877 191.292 39.5805L196.622 22.2255C196.729 21.9041 196.952 21.6631 197.292 21.5024C197.649 21.3417 198.024 21.2613 198.416 21.2613C198.827 21.2613 199.202 21.3417 199.541 21.5024C199.898 21.6631 200.13 21.9041 200.238 22.2255L205.541 39.5805C205.576 39.6877 205.594 39.768 205.594 39.8216C205.594 40.0358 205.496 40.2322 205.299 40.4108C205.121 40.5893 204.889 40.7322 204.603 40.8393C204.335 40.9464 204.067 41 203.8 41C203.568 41 203.362 40.9554 203.184 40.8661C203.023 40.7768 202.907 40.625 202.835 40.4108L201.737 36.6077H195.095L194.024 40.4108C193.97 40.625 193.845 40.7768 193.649 40.8661C193.471 40.9554 193.265 41 193.033 41ZM195.738 34.3312H201.095L198.416 25.1448L195.738 34.3312ZM99.7888 66C99.4786 66 99.1916 65.9302 98.9279 65.7906C98.6797 65.651 98.5556 65.4493 98.5556 65.1856V49.7822C98.5556 49.503 98.6797 49.3014 98.9279 49.1773C99.1916 49.0532 99.4786 48.9911 99.7888 48.9911C100.099 48.9911 100.378 49.0532 100.626 49.1773C100.89 49.3014 101.022 49.503 101.022 49.7822V65.1856C101.022 65.4493 100.89 65.651 100.626 65.7906C100.378 65.9302 100.099 66 99.7888 66ZM106.38 66C106.07 66 105.783 65.9302 105.519 65.7906C105.271 65.651 105.147 65.4493 105.147 65.1856V49.8055C105.147 49.5108 105.271 49.3014 105.519 49.1773C105.783 49.0532 106.07 48.9911 106.38 48.9911C106.675 48.9911 106.923 49.0377 107.125 49.1307C107.342 49.2083 107.536 49.3479 107.706 49.5496C107.877 49.7512 108.055 50.0304 108.242 50.3872L113.407 60.4622V49.7822C113.407 49.503 113.531 49.3014 113.779 49.1773C114.043 49.0532 114.33 48.9911 114.64 48.9911C114.951 48.9911 115.23 49.0532 115.478 49.1773C115.742 49.3014 115.874 49.503 115.874 49.7822V65.1856C115.874 65.4493 115.742 65.651 115.478 65.7906C115.23 65.9302 114.951 66 114.64 66C114.33 66 114.051 65.9224 113.803 65.7673C113.554 65.6122 113.345 65.3873 113.174 65.0925L107.613 54.5056V65.1856C107.613 65.4493 107.482 65.651 107.218 65.7906C106.97 65.9302 106.69 66 106.38 66ZM121.08 66C120.755 66 120.491 65.9224 120.289 65.7673C120.088 65.6122 119.987 65.4261 119.987 65.2089V49.7822C119.987 49.5651 120.088 49.3789 120.289 49.2238C120.491 49.0687 120.755 48.9911 121.08 48.9911H125.199C126.176 48.9911 127.06 49.1618 127.851 49.503C128.658 49.8443 129.286 50.395 129.736 51.155C130.201 51.9151 130.434 52.9234 130.434 54.1799V60.8112C130.434 62.0677 130.201 63.076 129.736 63.8361C129.286 64.5962 128.658 65.1468 127.851 65.4881C127.06 65.8294 126.176 66 125.199 66H121.08ZM122.453 63.8128H125.199C126.067 63.8128 126.742 63.5724 127.223 63.0915C127.719 62.5951 127.968 61.835 127.968 60.8112V54.1799C127.968 53.1561 127.719 52.4038 127.223 51.9229C126.742 51.4265 126.067 51.1783 125.199 51.1783H122.453V63.8128ZM139.607 66.1396C138.614 66.1396 137.715 65.969 136.908 65.6277C136.101 65.2864 135.465 64.7358 135 63.9757C134.535 63.2156 134.302 62.2073 134.302 60.9509V49.7822C134.302 49.503 134.426 49.3014 134.674 49.1773C134.923 49.0532 135.21 48.9911 135.535 48.9911C135.83 48.9911 136.109 49.0532 136.373 49.1773C136.637 49.3014 136.769 49.503 136.769 49.7822V60.9509C136.769 61.9746 137.017 62.7347 137.513 63.2311C138.009 63.712 138.708 63.9524 139.607 63.9524C140.491 63.9524 141.189 63.712 141.701 63.2311C142.213 62.7347 142.469 61.9746 142.469 60.9509V49.7822C142.469 49.503 142.593 49.3014 142.841 49.1773C143.09 49.0532 143.377 48.9911 143.702 48.9911C143.997 48.9911 144.276 49.0532 144.54 49.1773C144.804 49.3014 144.936 49.503 144.936 49.7822V60.9509C144.936 62.2073 144.695 63.2156 144.214 63.9757C143.749 64.7358 143.113 65.2864 142.306 65.6277C141.5 65.969 140.6 66.1396 139.607 66.1396ZM153.243 66.1861C152.235 66.1861 151.343 66.0388 150.567 65.7441C149.792 65.4493 149.187 65.0925 148.752 64.6737C148.318 64.2394 148.101 63.8283 148.101 63.4405C148.101 63.2544 148.147 63.0605 148.24 62.8588C148.349 62.6572 148.481 62.4865 148.636 62.3469C148.807 62.1918 148.985 62.1143 149.171 62.1143C149.388 62.1143 149.59 62.2073 149.776 62.3935C149.978 62.5641 150.218 62.7735 150.497 63.0217C150.777 63.2699 151.126 63.4871 151.544 63.6732C151.963 63.8593 152.498 63.9524 153.15 63.9524C153.708 63.9524 154.205 63.8671 154.639 63.6965C155.089 63.5103 155.438 63.2389 155.686 62.8821C155.95 62.5098 156.082 62.0444 156.082 61.486C156.082 60.8966 155.942 60.4079 155.663 60.0201C155.399 59.6323 155.035 59.3066 154.569 59.0429C154.119 58.7792 153.631 58.5387 153.103 58.3216C152.576 58.1044 152.041 57.8717 151.498 57.6235C150.955 57.3753 150.459 57.0806 150.009 56.7394C149.559 56.3826 149.194 55.9405 148.915 55.4131C148.651 54.8702 148.52 54.1954 148.52 53.3888C148.52 52.5356 148.675 51.8221 148.985 51.2481C149.311 50.6742 149.737 50.2166 150.265 49.8753C150.792 49.534 151.374 49.2936 152.01 49.154C152.646 48.9989 153.274 48.9213 153.894 48.9213C154.282 48.9213 154.709 48.9523 155.174 49.0144C155.655 49.0609 156.12 49.154 156.57 49.2936C157.02 49.4177 157.392 49.5883 157.687 49.8055C157.982 50.0227 158.129 50.2864 158.129 50.5966C158.129 50.7517 158.09 50.9379 158.013 51.155C157.935 51.3567 157.819 51.5351 157.664 51.6902C157.524 51.8453 157.338 51.9229 157.105 51.9229C156.904 51.9229 156.679 51.8531 156.431 51.7135C156.182 51.5584 155.857 51.411 155.453 51.2714C155.066 51.1163 154.546 51.0387 153.894 51.0387C153.336 51.0387 152.832 51.1163 152.382 51.2714C151.948 51.4265 151.606 51.6592 151.358 51.9694C151.11 52.2641 150.986 52.6597 150.986 53.1561C150.986 53.6525 151.118 54.0635 151.382 54.3893C151.661 54.6995 152.025 54.971 152.475 55.2037C152.925 55.4208 153.414 55.6302 153.941 55.8319C154.484 56.0336 155.019 56.274 155.546 56.5532C156.089 56.8169 156.586 57.1427 157.036 57.5305C157.501 57.9183 157.866 58.4146 158.129 59.0196C158.408 59.6091 158.548 60.3459 158.548 61.2301C158.548 62.3469 158.315 63.2776 157.85 64.0222C157.4 64.7513 156.772 65.2942 155.965 65.651C155.174 66.0078 154.267 66.1861 153.243 66.1861ZM166.198 66C165.888 66 165.601 65.9302 165.337 65.7906C165.089 65.651 164.965 65.4493 164.965 65.1856V51.2481H161.359C161.11 51.2481 160.916 51.1318 160.777 50.8991C160.637 50.6664 160.567 50.4027 160.567 50.108C160.567 49.8288 160.629 49.5728 160.754 49.3401C160.878 49.1075 161.079 48.9911 161.359 48.9911H171.015C171.309 48.9911 171.519 49.1075 171.643 49.3401C171.767 49.5728 171.829 49.821 171.829 50.0847C171.829 50.395 171.759 50.6664 171.62 50.8991C171.496 51.1318 171.294 51.2481 171.015 51.2481H167.431V65.1856C167.431 65.4493 167.3 65.651 167.036 65.7906C166.788 65.9302 166.509 66 166.198 66ZM183.832 66.0698C183.63 66.0698 183.444 66 183.274 65.8604C183.119 65.7208 182.987 65.5502 182.878 65.3485L179.458 58.6939H177.131V65.1856C177.131 65.4493 176.999 65.651 176.735 65.7906C176.487 65.9302 176.208 66 175.898 66C175.588 66 175.301 65.9302 175.037 65.7906C174.789 65.651 174.665 65.4493 174.665 65.1856V49.7822C174.665 49.5651 174.734 49.3789 174.874 49.2238C175.029 49.0687 175.238 48.9911 175.502 48.9911H179.923C180.9 48.9911 181.792 49.1385 182.599 49.4332C183.406 49.7124 184.049 50.2011 184.53 50.8991C185.011 51.5816 185.251 52.5279 185.251 53.7378C185.251 54.6685 185.104 55.4441 184.809 56.0646C184.53 56.6851 184.142 57.1814 183.646 57.5537C183.165 57.9105 182.614 58.1742 181.994 58.3448L185.251 64.4643C185.282 64.5109 185.306 64.5729 185.321 64.6505C185.337 64.7125 185.345 64.7668 185.345 64.8133C185.345 65.015 185.267 65.2166 185.112 65.4183C184.957 65.6044 184.763 65.7596 184.53 65.8837C184.313 66.0078 184.08 66.0698 183.832 66.0698ZM177.131 56.7161H179.923C180.792 56.7161 181.482 56.5067 181.994 56.0879C182.521 55.669 182.785 54.9555 182.785 53.9472C182.785 52.9389 182.521 52.2254 181.994 51.8065C181.482 51.3877 180.792 51.1783 179.923 51.1783H177.131V56.7161ZM189.806 66C189.496 66 189.209 65.9302 188.945 65.7906C188.697 65.651 188.573 65.4493 188.573 65.1856V49.7822C188.573 49.503 188.697 49.3014 188.945 49.1773C189.209 49.0532 189.496 48.9911 189.806 48.9911C190.116 48.9911 190.395 49.0532 190.643 49.1773C190.907 49.3014 191.039 49.503 191.039 49.7822V65.1856C191.039 65.4493 190.907 65.651 190.643 65.7906C190.395 65.9302 190.116 66 189.806 66ZM195.466 66C195.249 66 195.017 65.9535 194.768 65.8604C194.52 65.7673 194.319 65.651 194.163 65.5114C194.008 65.3563 193.931 65.1779 193.931 64.9762C193.931 64.9297 193.939 64.8599 193.954 64.7668L198.584 49.6892C198.677 49.4099 198.871 49.2005 199.166 49.0609C199.476 48.9213 199.802 48.8515 200.143 48.8515C200.5 48.8515 200.826 48.9213 201.121 49.0609C201.431 49.2005 201.632 49.4099 201.726 49.6892L206.333 64.7668C206.364 64.8599 206.379 64.9297 206.379 64.9762C206.379 65.1624 206.294 65.333 206.123 65.4881C205.968 65.6432 205.766 65.7673 205.518 65.8604C205.286 65.9535 205.053 66 204.82 66C204.619 66 204.44 65.9612 204.285 65.8837C204.145 65.8061 204.045 65.6742 203.983 65.4881L203.029 62.1841H197.258L196.327 65.4881C196.281 65.6742 196.172 65.8061 196.002 65.8837C195.847 65.9612 195.668 66 195.466 66ZM197.817 60.2063H202.47L200.143 52.2254L197.817 60.2063ZM210.347 66C210.084 66 209.836 65.9302 209.603 65.7906C209.37 65.651 209.254 65.4493 209.254 65.1856V49.7822C209.254 49.503 209.378 49.3014 209.626 49.1773C209.89 49.0532 210.177 48.9911 210.487 48.9911C210.797 48.9911 211.076 49.0532 211.325 49.1773C211.588 49.3014 211.72 49.503 211.72 49.7822V63.8128H217.77C218.018 63.8128 218.204 63.9292 218.328 64.1618C218.452 64.379 218.514 64.6272 218.514 64.9064C218.514 65.1701 218.452 65.4183 218.328 65.651C218.204 65.8837 218.018 66 217.77 66H210.347Z" fill="#213B8C"/>
</svg>
