<svg width="222" height="90" viewBox="0 0 222 90" fill="none" xmlns="http://www.w3.org/2000/svg">
<g id="Frame 48101976">
<g id="Group 48095569">
<g id="Union">
<path fill-rule="evenodd" clip-rule="evenodd" d="M77.7243 44.9996C77.7243 65.3661 61.1702 81.8763 40.7498 81.8763C20.3293 81.8763 3.77529 65.3661 3.77529 44.9996C3.77529 24.6332 20.3293 8.12294 40.7498 8.12294C61.1702 8.12294 77.7243 24.6332 77.7243 44.9996ZM77.5287 44.9996C77.5287 65.2575 61.0627 81.6807 40.7498 81.6807C20.4369 81.6807 3.97092 65.2575 3.97092 44.9996C3.97092 24.7417 20.4369 8.31858 40.7498 8.31858C61.0627 8.31858 77.5287 24.7417 77.5287 44.9996Z" fill="#0F049E"/>
<path fill-rule="evenodd" clip-rule="evenodd" d="M81.05 44.9996C81.05 67.3109 62.9632 85.3977 40.652 85.3977C18.3407 85.3977 0.253906 67.3109 0.253906 44.9996C0.253906 22.6884 18.3407 4.60156 40.652 4.60156C62.9632 4.60156 81.05 22.6884 81.05 44.9996ZM80.8544 44.9996C80.8544 67.2028 62.8552 85.2021 40.652 85.2021C18.4488 85.2021 0.449539 67.2028 0.449539 44.9996C0.449539 22.7964 18.4488 4.79719 40.652 4.79719C62.8552 4.79719 80.8544 22.7964 80.8544 44.9996Z" fill="#0F049E"/>
<path fill-rule="evenodd" clip-rule="evenodd" d="M40.652 85.2021C62.8552 85.2021 80.8544 67.2028 80.8544 44.9996C80.8544 22.7964 62.8552 4.79719 40.652 4.79719C18.4488 4.79719 0.449539 22.7964 0.449539 44.9996C0.449539 67.2028 18.4488 85.2021 40.652 85.2021ZM77.7243 44.9996C77.7243 65.3661 61.1702 81.8763 40.7498 81.8763C20.3293 81.8763 3.77529 65.3661 3.77529 44.9996C3.77529 24.6332 20.3293 8.12294 40.7498 8.12294C61.1702 8.12294 77.7243 24.6332 77.7243 44.9996Z" fill="#0F049E"/>
<path d="M40.7498 81.6807C61.0627 81.6807 77.5287 65.2575 77.5287 44.9996C77.5287 24.7417 61.0627 8.31858 40.7498 8.31858C20.4369 8.31858 3.97092 24.7417 3.97092 44.9996C3.97092 65.2575 20.4369 81.6807 40.7498 81.6807Z" fill="#0F049E"/>
</g>
<path id="Vector 378" d="M26.6348 32.048L26.5205 31.9593H26.3759H16.0074H14.7977L15.7446 32.712C19.1682 35.4336 20.7469 37.0945 22.9906 40.3408C23.5415 41.2246 23.8986 41.9079 24.1509 42.5981C24.4035 43.2889 24.5573 44.0033 24.6854 44.9554C24.8231 46.0962 24.8137 46.6155 24.6919 47.445C24.2295 48.8371 23.7618 49.6855 23.125 50.2337C22.4923 50.7784 21.637 51.074 20.2873 51.229H11.5078H11.0856V51.6513V59.9656V60.3879H11.5078H25.4955H25.5467L25.5963 60.3757C26.7843 60.0836 27.6819 59.8025 28.4827 59.4136C29.2874 59.0229 29.9771 58.5319 30.7618 57.8383C32.7723 56.1026 33.8714 54.8209 35.0505 52.8562V68.4756V68.8979H35.4728H45.7435H46.1657V68.4756V52.7672C47.2734 54.524 48.2508 55.7382 50.0511 57.4361L50.0596 57.4441L50.0685 57.4517C51.2654 58.4615 52.2746 59.1308 53.2602 59.58C54.2491 60.0307 55.1956 60.2513 56.2549 60.3846L56.2812 60.3879H56.3076H69.8062H70.2285V59.9656V51.6513V51.2376L69.8148 51.2291L60.2289 51.0335L60.2289 51.0334H60.2202C59.2584 51.0334 58.4642 50.5307 57.8576 49.7977C57.248 49.0609 56.8606 48.1265 56.723 47.3696C56.5359 46.3402 56.5156 45.6092 56.7229 44.4759C57.0936 42.4495 57.7628 41.4359 58.9711 39.6141L58.6192 39.3807L58.9711 39.6141L59.0071 39.5598C60.5026 37.3048 61.9672 35.7971 65.5813 32.7022L66.4489 31.9593H65.3067H55.036H54.8884L54.773 32.0512C50.8482 35.1766 48.8012 37.72 46.1657 42.6717V20.6436V20.2213H45.7435H35.6684H35.2462V20.6436V42.7948C32.34 37.3637 30.2629 34.8651 26.6348 32.048Z" fill="white" stroke="#F2F2F2" stroke-width="0.844448"/>
</g>
<path id="Kimberly&#226;&#128;&#168;Clark" d="M108.83 34.9995H104.07L94.4782 23.4274V34.9995H90.4819V10.6738H94.4782V21.5856L103.722 10.6738H108.483L98.6484 22.5239L108.83 34.9995ZM114.027 14.3227C113.564 14.786 113.008 15.0177 112.359 15.0177C111.71 15.0177 111.143 14.786 110.656 14.3227C110.193 13.8361 109.961 13.2685 109.961 12.6199C109.961 11.9712 110.193 11.4151 110.656 10.9518C111.12 10.4653 111.687 10.222 112.359 10.222C113.031 10.222 113.598 10.4653 114.062 10.9518C114.525 11.4151 114.757 11.9712 114.757 12.6199C114.757 13.2685 114.514 13.8361 114.027 14.3227ZM110.482 34.9995V17.624H114.236V34.9995H110.482ZM136.872 17.1722C138.842 17.1722 140.429 17.8093 141.633 19.0835C142.838 20.3577 143.44 22.0721 143.44 24.2267V34.9995H139.687V24.47C139.687 23.2652 139.386 22.3386 138.784 21.6899C138.181 21.018 137.359 20.6821 136.316 20.6821C135.158 20.6821 134.231 21.0644 133.536 21.8289C132.864 22.5934 132.528 23.7402 132.528 25.2692V34.9995H128.775V24.47C128.775 23.2652 128.486 22.3386 127.907 21.6899C127.351 21.018 126.551 20.6821 125.509 20.6821C124.374 20.6821 123.447 21.0759 122.729 21.8636C122.01 22.6281 121.651 23.7633 121.651 25.2692V34.9995H117.898V17.624H121.651V19.7091C122.763 18.0178 124.42 17.1722 126.621 17.1722C128.845 17.1722 130.49 18.0873 131.555 19.9176C132.714 18.0873 134.486 17.1722 136.872 17.1722ZM156.597 17.1722C158.983 17.1722 161.021 18.0526 162.713 19.8133C164.404 21.574 165.25 23.7402 165.25 26.3118C165.25 28.8602 164.404 31.0263 162.713 32.8102C161.021 34.5709 158.983 35.4513 156.597 35.4513C153.955 35.4513 151.928 34.4667 150.515 32.4974V34.9995H146.762V10.6738H150.515V20.0913C151.928 18.1453 153.955 17.1722 156.597 17.1722ZM152.079 30.3081C153.121 31.3507 154.43 31.8719 156.006 31.8719C157.581 31.8719 158.89 31.3507 159.933 30.3081C160.975 29.2424 161.496 27.9103 161.496 26.3118C161.496 24.7132 160.975 23.3927 159.933 22.3501C158.89 21.2844 157.581 20.7516 156.006 20.7516C154.43 20.7516 153.121 21.2844 152.079 22.3501C151.036 23.3927 150.515 24.7132 150.515 26.3118C150.515 27.9103 151.036 29.2424 152.079 30.3081ZM170.91 27.9103C171.188 29.2308 171.825 30.2502 172.821 30.9684C173.817 31.6634 175.034 32.0109 176.47 32.0109C178.462 32.0109 179.957 31.2927 180.953 29.8564L184.046 31.6634C182.331 34.1887 179.795 35.4513 176.435 35.4513C173.609 35.4513 171.327 34.5941 169.589 32.8797C167.852 31.1421 166.983 28.9528 166.983 26.3118C166.983 23.717 167.84 21.5509 169.555 19.8133C171.269 18.0526 173.47 17.1722 176.157 17.1722C178.706 17.1722 180.791 18.0642 182.412 19.8481C184.057 21.632 184.88 23.7981 184.88 26.3465C184.88 26.7404 184.833 27.2616 184.741 27.9103H170.91ZM170.875 24.8522H181.092C180.837 23.439 180.246 22.3733 179.32 21.6551C178.416 20.9369 177.35 20.5778 176.123 20.5778C174.732 20.5778 173.574 20.9601 172.647 21.7246C171.721 22.4891 171.13 23.5317 170.875 24.8522ZM191.24 20.5431C192.19 18.3885 193.974 17.3112 196.592 17.3112V21.3771C195.156 21.2844 193.905 21.632 192.839 22.4196C191.773 23.1842 191.24 24.4584 191.24 26.2423V34.9995H187.487V17.624H191.24V20.5431ZM198.67 34.9995V9.63126H202.423V34.9995H198.67ZM217.797 17.624H221.793L215.121 35.5555C213.453 40.05 210.627 42.1814 206.642 41.9497V38.4399C207.823 38.5094 208.773 38.2545 209.491 37.6753C210.21 37.1193 210.8 36.239 211.264 35.0343L211.437 34.6868L204.07 17.624H208.171L213.349 30.2386L217.797 17.624ZM127.718 74.4513C124.057 74.4513 121.023 73.2466 118.613 70.8372C116.204 68.4046 114.999 65.4044 114.999 61.8367C114.999 58.2689 116.204 55.2803 118.613 52.8709C121.023 50.4383 124.057 49.222 127.718 49.222C129.919 49.222 131.946 49.7433 133.799 50.7858C135.676 51.8284 137.135 53.2416 138.178 55.0255L134.703 57.041C134.054 55.8363 133.104 54.8864 131.853 54.1914C130.625 53.4732 129.247 53.1141 127.718 53.1141C125.123 53.1141 123.015 53.9366 121.393 55.5815C119.795 57.2264 118.995 59.3114 118.995 61.8367C118.995 64.3619 119.795 66.447 121.393 68.0918C123.015 69.7367 125.123 70.5592 127.718 70.5592C129.247 70.5592 130.637 70.2117 131.888 69.5166C133.139 68.7984 134.077 67.837 134.703 66.6323L138.178 68.6131C137.159 70.397 135.711 71.8218 133.834 72.8875C131.981 73.93 129.942 74.4513 127.718 74.4513ZM140.729 73.9995V48.6313H144.483V73.9995H140.729ZM161.907 56.624H165.66V73.9995H161.907V71.4974C160.493 73.4667 158.466 74.4513 155.825 74.4513C153.439 74.4513 151.4 73.5709 149.709 71.8102C148.018 70.0263 147.172 67.8602 147.172 65.3118C147.172 62.7402 148.018 60.574 149.709 58.8133C151.4 57.0526 153.439 56.1722 155.825 56.1722C158.466 56.1722 160.493 57.1453 161.907 59.0913V56.624ZM152.489 69.3081C153.532 70.3507 154.841 70.8719 156.416 70.8719C157.991 70.8719 159.3 70.3507 160.343 69.3081C161.385 68.2424 161.907 66.9103 161.907 65.3118C161.907 63.7132 161.385 62.3927 160.343 61.3501C159.3 60.2844 157.991 59.7516 156.416 59.7516C154.841 59.7516 153.532 60.2844 152.489 61.3501C151.447 62.3927 150.925 63.7132 150.925 65.3118C150.925 66.9103 151.447 68.2424 152.489 69.3081ZM173.092 59.5431C174.042 57.3885 175.826 56.3112 178.444 56.3112V60.3771C177.008 60.2844 175.757 60.632 174.691 61.4196C173.625 62.1842 173.092 63.4584 173.092 65.2423V73.9995H169.339V56.624H173.092V59.5431ZM195.882 73.9995H191.399L184.275 65.972V73.9995H180.522V49.6738H184.275V64.304L191.017 56.624H195.604L187.959 65.138L195.882 73.9995Z" fill="#0F049E"/>
</g>
</svg>
