<svg width="60" height="60" viewBox="0 0 60 60" fill="none" xmlns="http://www.w3.org/2000/svg">
<rect width="60" height="60" rx="6" fill="#3C50E0"/>
<path fill-rule="evenodd" clip-rule="evenodd" d="M23.4828 42.3765C24.5391 42.3765 25.3954 41.5202 25.3954 40.4639C25.3954 40.2706 25.3673 40.0859 25.3153 39.9125C25.2733 39.9056 25.1718 39.8932 24.9529 39.8854C24.6784 39.8756 24.3217 39.8753 23.777 39.8753C23.5698 39.8753 23.3606 39.8726 23.1657 39.8701L23.1491 39.8699C22.9557 39.8674 22.7754 39.865 22.5982 39.8646C22.228 39.8639 21.9315 39.8723 21.691 39.8968C21.6781 39.8981 21.6657 39.8994 21.6538 39.9008C21.5995 40.0776 21.5701 40.2663 21.5701 40.4639C21.5701 41.5202 22.4265 42.3765 23.4828 42.3765ZM27.0511 38.4041C25.9839 37.6685 25.8935 37.6685 23.7771 37.6685H23.777C23.5795 37.6685 23.3771 37.6658 23.1731 37.6631C21.8024 37.6452 20.3643 37.6264 19.9144 38.4041C19.5639 39.01 19.3633 39.7135 19.3633 40.4639C19.3633 42.739 21.2076 44.5833 23.4828 44.5833C25.7579 44.5833 27.6022 42.739 27.6022 40.4639C27.6022 39.7135 27.4016 39.01 27.0511 38.4041Z" fill="white"/>
<path fill-rule="evenodd" clip-rule="evenodd" d="M37.0179 42.3765C38.0742 42.3765 38.9305 41.5202 38.9305 40.4639C38.9305 40.2706 38.9025 40.0859 38.8505 39.9125C38.8085 39.9056 38.7069 39.8932 38.488 39.8854C38.2136 39.8756 37.8568 39.8753 37.3122 39.8753C37.105 39.8753 36.8958 39.8726 36.7008 39.8701L36.6843 39.8699C36.4908 39.8674 36.3106 39.865 36.1334 39.8646C35.7632 39.8639 35.4667 39.8723 35.2261 39.8968C35.2133 39.8981 35.2009 39.8994 35.1889 39.9008C35.1346 40.0776 35.1053 40.2663 35.1053 40.4639C35.1053 41.5202 35.9616 42.3765 37.0179 42.3765ZM40.5863 38.4041C39.5191 37.6685 39.4286 37.6685 37.3123 37.6685H37.3122C37.1147 37.6685 36.9122 37.6658 36.7083 37.6631C35.3375 37.6452 33.8994 37.6264 33.4496 38.4041C33.099 39.01 32.8984 39.7135 32.8984 40.4639C32.8984 42.739 34.7428 44.5833 37.0179 44.5833C39.293 44.5833 41.1374 42.739 41.1374 40.4639C41.1374 39.7135 40.9368 39.01 40.5863 38.4041Z" fill="white"/>
<path fill-rule="evenodd" clip-rule="evenodd" d="M31.1329 18.5423H20.8342C18.8028 18.5423 17.1561 20.1891 17.1561 22.2204V33.9904C17.1561 36.0217 18.8028 37.6685 20.8342 37.6685H34.811V22.2204C34.811 20.1891 33.1643 18.5423 31.1329 18.5423ZM20.8342 16.3354C17.584 16.3354 14.9492 18.9702 14.9492 22.2204V33.9904C14.9492 37.2405 17.584 39.8753 20.8342 39.8753H37.0179V22.2204C37.0179 18.9702 34.3831 16.3354 31.1329 16.3354H20.8342Z" fill="white"/>
<path fill-rule="evenodd" clip-rule="evenodd" d="M39.2262 24.4271H37.0194V37.6683H39.2262C41.2576 37.6683 42.9043 36.0215 42.9043 33.9902V28.1052C42.9043 26.0738 41.2576 24.4271 39.2262 24.4271ZM34.8125 22.2202V39.8751H39.2262C42.4764 39.8751 45.1112 37.2403 45.1112 33.9902V28.1052C45.1112 24.855 42.4764 22.2202 39.2262 22.2202H34.8125Z" fill="white"/>
</svg>
