<svg width="40" height="40" viewBox="0 0 40 40" fill="none" xmlns="http://www.w3.org/2000/svg">
<circle cx="20" cy="20.2729" r="19.5" fill="#EBF1FF"/>
<path fill-rule="evenodd" clip-rule="evenodd" d="M20 31.7729C24.6944 31.7729 28.5 27.9674 28.5 23.2729C28.5 18.5785 24.6944 14.7729 20 14.7729C15.3056 14.7729 11.5 18.5785 11.5 23.2729C11.5 27.9674 15.3056 31.7729 20 31.7729ZM18.5 21.7729L20 19.2729L21.5 21.7729H24L22.5 24.2729L23 26.7729L20 25.7729L17 26.7729L17.5 24.2729L16 21.7729H18.5Z" fill="#6278FF"/>
<path d="M14 13.7729V10.2729H19V13.7729H14Z" fill="#6278FF" stroke="#6278FF"/>
<path d="M21.5 13.7729V10.2729H26V13.7729H21.5Z" fill="#6278FF" stroke="#6278FF"/>
</svg>
