<svg width="139" height="29" viewBox="0 0 139 29" fill="none" xmlns="http://www.w3.org/2000/svg">
<path d="M12.4691 5.61753C12.9864 4.28282 14.875 4.28282 15.3923 5.61753L16.6865 8.95673C16.9978 9.76008 17.7505 10.3069 18.6107 10.3548L22.1864 10.5538C23.6156 10.6333 24.1992 12.4294 23.0897 13.3338L20.3139 15.5965C19.646 16.1409 19.3586 17.0257 19.5789 17.8586L20.4946 21.3208C20.8606 22.7047 19.3327 23.8147 18.1297 23.039L15.12 21.0982C14.3959 20.6313 13.4655 20.6313 12.7414 21.0982L9.73168 23.039C8.52866 23.8147 7.00081 22.7047 7.36683 21.3208L8.28253 17.8586C8.50284 17.0257 8.21535 16.1409 7.54753 15.5965L4.7717 13.3338C3.66217 12.4294 4.24575 10.6333 5.67499 10.5538L9.25069 10.3548C10.1109 10.3069 10.8636 9.76008 11.1749 8.95673L12.4691 5.61753Z" fill="#FDE273" stroke="#FDE273" stroke-width="0.626999"/>
<path d="M40.059 5.61753C40.5763 4.28282 42.4648 4.28282 42.9821 5.61753L44.2763 8.95673C44.5877 9.76008 45.3403 10.3069 46.2006 10.3548L49.7762 10.5538C51.2055 10.6333 51.7891 12.4294 50.6795 13.3338L47.9037 15.5965C47.2359 16.1409 46.9484 17.0257 47.1687 17.8586L48.0844 21.3208C48.4504 22.7047 46.9226 23.8147 45.7196 23.039L42.7098 21.0982C41.9857 20.6313 41.0554 20.6313 40.3313 21.0982L37.3215 23.039C36.1185 23.8147 34.5907 22.7047 34.9567 21.3208L35.8724 17.8586C36.0927 17.0257 35.8052 16.1409 35.1374 15.5965L32.3615 13.3338C31.252 12.4294 31.8356 10.6333 33.2648 10.5538L36.8405 10.3548C37.7008 10.3069 38.4534 9.76008 38.7648 8.95673L40.059 5.61753Z" fill="#FDE273" stroke="#FDE273" stroke-width="0.626999"/>
<path d="M67.6449 5.61753C68.1622 4.28282 70.0507 4.28282 70.568 5.61753L71.8622 8.95673C72.1736 9.76008 72.9262 10.3069 73.7865 10.3548L77.3622 10.5538C78.7914 10.6333 79.375 12.4294 78.2655 13.3338L75.4896 15.5965C74.8218 16.1409 74.5343 17.0257 74.7546 17.8586L75.6703 21.3208C76.0364 22.7047 74.5085 23.8147 73.3055 23.039L70.2957 21.0982C69.5716 20.6313 68.6413 20.6313 67.9172 21.0982L64.9075 23.039C63.7044 23.8147 62.1766 22.7047 62.5426 21.3208L63.4583 17.8586C63.6786 17.0257 63.3911 16.1409 62.7233 15.5965L59.9475 13.3338C58.838 12.4294 59.4215 10.6333 60.8508 10.5538L64.4265 10.3548C65.2867 10.3069 66.0394 9.76008 66.3507 8.95673L67.6449 5.61753Z" fill="#FDE273" stroke="#FDE273" stroke-width="0.626999"/>
<path d="M95.2348 5.61753C95.7521 4.28282 97.6406 4.28282 98.1579 5.61753L99.4521 8.95673C99.7634 9.76008 100.516 10.3069 101.376 10.3548L104.952 10.5538C106.381 10.6333 106.965 12.4294 105.855 13.3338L103.079 15.5965C102.412 16.1409 102.124 17.0257 102.344 17.8586L103.26 21.3208C103.626 22.7047 102.098 23.8147 100.895 23.039L97.8856 21.0982C97.1615 20.6313 96.2312 20.6313 95.5071 21.0982L92.4973 23.039C91.2943 23.8147 89.7664 22.7047 90.1325 21.3208L91.0482 17.8586C91.2685 17.0257 90.981 16.1409 90.3132 15.5965L87.5373 13.3338C86.4278 12.4294 87.0114 10.6333 88.4406 10.5538L92.0163 10.3548C92.8766 10.3069 93.6292 9.76008 93.9406 8.95673L95.2348 5.61753Z" fill="#FDE273" stroke="#FDE273" stroke-width="0.626999"/>
<path d="M122.821 5.61753C123.338 4.28282 125.227 4.28282 125.744 5.61753L127.038 8.95673C127.349 9.76008 128.102 10.3069 128.962 10.3548L132.538 10.5538C133.967 10.6333 134.551 12.4294 133.441 13.3338L130.665 15.5965C129.998 16.1409 129.71 17.0257 129.93 17.8586L130.846 21.3208C131.212 22.7047 129.684 23.8147 128.481 23.039L125.472 21.0982C124.747 20.6313 123.817 20.6313 123.093 21.0982L120.083 23.039C118.88 23.8147 117.352 22.7047 117.718 21.3208L118.634 17.8586C118.854 17.0257 118.567 16.1409 117.899 15.5965L115.123 13.3338C114.014 12.4294 114.597 10.6333 116.027 10.5538L119.602 10.3548C120.462 10.3069 121.215 9.76008 121.527 8.95673L122.821 5.61753Z" fill="#FDE273" stroke="#FDE273" stroke-width="0.626999"/>
</svg>
