<svg width="152" height="51" viewBox="0 0 152 51" fill="none" xmlns="http://www.w3.org/2000/svg">
<circle cx="25" cy="25.5059" r="22" stroke="url(#paint0_linear_147_12108)" stroke-width="6"/>
<path d="M33 25.5059L21 32.4341L21 18.5777L33 25.5059Z" fill="#6379FF"/>
<path d="M79.4607 18.9959L74.7627 31.5059H72.3867L67.6707 18.9959H69.8667L73.5747 29.3999L77.3007 18.9959H79.4607ZM89.9067 26.3039C89.9067 26.6759 89.8827 27.0119 89.8347 27.3119H82.2567C82.3167 28.1039 82.6107 28.7399 83.1387 29.2199C83.6667 29.6999 84.3147 29.9399 85.0827 29.9399C86.1867 29.9399 86.9667 29.4779 87.4227 28.5539H89.6367C89.3367 29.4659 88.7907 30.2159 87.9987 30.8039C87.2187 31.3799 86.2467 31.6679 85.0827 31.6679C84.1347 31.6679 83.2827 31.4579 82.5267 31.0379C81.7827 30.6059 81.1947 30.0059 80.7627 29.2379C80.3427 28.4579 80.1327 27.5579 80.1327 26.5379C80.1327 25.5179 80.3367 24.6239 80.7447 23.8559C81.1647 23.0759 81.7467 22.4759 82.4907 22.0559C83.2467 21.6359 84.1107 21.4259 85.0827 21.4259C86.0187 21.4259 86.8527 21.6299 87.5847 22.0379C88.3167 22.4459 88.8867 23.0219 89.2947 23.7659C89.7027 24.4979 89.9067 25.3439 89.9067 26.3039ZM87.7647 25.6559C87.7527 24.8999 87.4827 24.2939 86.9547 23.8379C86.4267 23.3819 85.7727 23.1539 84.9927 23.1539C84.2847 23.1539 83.6787 23.3819 83.1747 23.8379C82.6707 24.2819 82.3707 24.8879 82.2747 25.6559H87.7647ZM93.6181 23.0279C93.9181 22.5239 94.3141 22.1339 94.8061 21.8579C95.3101 21.5699 95.9041 21.4259 96.5881 21.4259V23.5499H96.0661C95.2621 23.5499 94.6501 23.7539 94.2301 24.1619C93.8221 24.5699 93.6181 25.2779 93.6181 26.2859V31.5059H91.5661V21.5879H93.6181V23.0279ZM113.212 18.9959L108.514 31.5059H106.138L101.422 18.9959H103.618L107.326 29.3999L111.052 18.9959H113.212ZM115.612 20.2739C115.24 20.2739 114.928 20.1479 114.676 19.8959C114.424 19.6439 114.298 19.3319 114.298 18.9599C114.298 18.5879 114.424 18.2759 114.676 18.0239C114.928 17.7719 115.24 17.6459 115.612 17.6459C115.972 17.6459 116.278 17.7719 116.53 18.0239C116.782 18.2759 116.908 18.5879 116.908 18.9599C116.908 19.3319 116.782 19.6439 116.53 19.8959C116.278 20.1479 115.972 20.2739 115.612 20.2739ZM116.62 21.5879V31.5059H114.568V21.5879H116.62ZM118.27 26.5019C118.27 25.5059 118.474 24.6239 118.882 23.8559C119.302 23.0879 119.866 22.4939 120.574 22.0739C121.294 21.6419 122.092 21.4259 122.968 21.4259C123.616 21.4259 124.252 21.5699 124.876 21.8579C125.512 22.1339 126.016 22.5059 126.388 22.9739V18.1859H128.458V31.5059H126.388V30.0119C126.052 30.4919 125.584 30.8879 124.984 31.1999C124.396 31.5119 123.718 31.6679 122.95 31.6679C122.086 31.6679 121.294 31.4519 120.574 31.0199C119.866 30.5759 119.302 29.9639 118.882 29.1839C118.474 28.3919 118.27 27.4979 118.27 26.5019ZM126.388 26.5379C126.388 25.8539 126.244 25.2599 125.956 24.7559C125.68 24.2519 125.314 23.8679 124.858 23.6039C124.402 23.3399 123.91 23.2079 123.382 23.2079C122.854 23.2079 122.362 23.3399 121.906 23.6039C121.45 23.8559 121.078 24.2339 120.79 24.7379C120.514 25.2299 120.376 25.8179 120.376 26.5019C120.376 27.1859 120.514 27.7859 120.79 28.3019C121.078 28.8179 121.45 29.2139 121.906 29.4899C122.374 29.7539 122.866 29.8859 123.382 29.8859C123.91 29.8859 124.402 29.7539 124.858 29.4899C125.314 29.2259 125.68 28.8419 125.956 28.3379C126.244 27.8219 126.388 27.2219 126.388 26.5379ZM139.883 26.3039C139.883 26.6759 139.859 27.0119 139.811 27.3119H132.233C132.293 28.1039 132.587 28.7399 133.115 29.2199C133.643 29.6999 134.291 29.9399 135.059 29.9399C136.163 29.9399 136.943 29.4779 137.399 28.5539H139.613C139.313 29.4659 138.767 30.2159 137.975 30.8039C137.195 31.3799 136.223 31.6679 135.059 31.6679C134.111 31.6679 133.259 31.4579 132.503 31.0379C131.759 30.6059 131.171 30.0059 130.739 29.2379C130.319 28.4579 130.109 27.5579 130.109 26.5379C130.109 25.5179 130.313 24.6239 130.721 23.8559C131.141 23.0759 131.723 22.4759 132.467 22.0559C133.223 21.6359 134.087 21.4259 135.059 21.4259C135.995 21.4259 136.829 21.6299 137.561 22.0379C138.293 22.4459 138.863 23.0219 139.271 23.7659C139.679 24.4979 139.883 25.3439 139.883 26.3039ZM137.741 25.6559C137.729 24.8999 137.459 24.2939 136.931 23.8379C136.403 23.3819 135.749 23.1539 134.969 23.1539C134.261 23.1539 133.655 23.3819 133.151 23.8379C132.647 24.2819 132.347 24.8879 132.251 25.6559H137.741ZM145.845 31.6679C144.909 31.6679 144.063 31.4579 143.307 31.0379C142.551 30.6059 141.957 30.0059 141.525 29.2379C141.093 28.4579 140.877 27.5579 140.877 26.5379C140.877 25.5299 141.099 24.6359 141.543 23.8559C141.987 23.0759 142.593 22.4759 143.361 22.0559C144.129 21.6359 144.987 21.4259 145.935 21.4259C146.883 21.4259 147.741 21.6359 148.509 22.0559C149.277 22.4759 149.883 23.0759 150.327 23.8559C150.771 24.6359 150.993 25.5299 150.993 26.5379C150.993 27.5459 150.765 28.4399 150.309 29.2199C149.853 29.9999 149.229 30.6059 148.437 31.0379C147.657 31.4579 146.793 31.6679 145.845 31.6679ZM145.845 29.8859C146.373 29.8859 146.865 29.7599 147.321 29.5079C147.789 29.2559 148.167 28.8779 148.455 28.3739C148.743 27.8699 148.887 27.2579 148.887 26.5379C148.887 25.8179 148.749 25.2119 148.473 24.7199C148.197 24.2159 147.831 23.8379 147.375 23.5859C146.919 23.3339 146.427 23.2079 145.899 23.2079C145.371 23.2079 144.879 23.3339 144.423 23.5859C143.979 23.8379 143.625 24.2159 143.361 24.7199C143.097 25.2119 142.965 25.8179 142.965 26.5379C142.965 27.6059 143.235 28.4339 143.775 29.0219C144.327 29.5979 145.017 29.8859 145.845 29.8859Z" fill="#001439"/>
<defs>
<linearGradient id="paint0_linear_147_12108" x1="0" y1="25.5059" x2="50" y2="25.5059" gradientUnits="userSpaceOnUse">
<stop offset="0.509998" stop-color="#6278FF"/>
<stop offset="0.509998" stop-color="#EDEDED"/>
</linearGradient>
</defs>
</svg>
