<svg width="44" height="44" viewBox="0 0 44 44" fill="none" xmlns="http://www.w3.org/2000/svg">
<rect width="44" height="44" rx="22" fill="#878694" fill-opacity="0.24"/>
<path d="M33.9995 21.9945C34.0496 27.6429 29.918 32.6915 24.3858 33.7612C21.4347 34.331 18.6436 33.8811 16.0226 32.4115C15.8625 32.3216 15.7225 32.2916 15.5424 32.3416C13.8817 32.8214 12.2211 33.2813 10.5605 33.7412C10.4504 33.7712 10.3003 33.8911 10.2103 33.7812C10.1203 33.6812 10.2303 33.5412 10.2603 33.4213C10.7205 31.7617 11.1907 30.0922 11.6609 28.4327C11.7109 28.2527 11.6909 28.1327 11.6009 27.9828C10.3304 25.7634 9.83017 23.3641 10.0503 20.8248C10.5104 15.5163 14.6821 11.0375 19.9841 10.1678C25.0861 9.32802 29.988 11.6874 32.509 16.1961C33.4994 17.9956 33.9795 19.935 33.9995 21.9945ZM11.971 32.0117C13.2315 31.6618 14.4219 31.3319 15.6024 30.9819C15.8725 30.902 16.0726 30.932 16.3027 31.0819C18.6736 32.5515 21.2546 33.0514 23.9857 32.5215C29.938 31.3618 33.6494 25.7734 32.479 19.8251C31.3285 13.9867 25.3762 10.1678 19.5739 11.5474C12.3411 13.2669 8.98985 21.4346 12.9414 27.7529C13.0614 27.9328 13.0814 28.0928 13.0214 28.3027C12.6813 29.5124 12.3411 30.732 11.971 32.0117Z" fill="white"/>
<path d="M11.7179 32.2596C12.0912 30.9458 12.4438 29.7044 12.7963 28.4631C12.8586 28.2562 12.8378 28.0907 12.7238 27.9045C8.66918 21.4287 12.1016 13.0598 19.5263 11.2909C25.4889 9.87368 31.5967 13.784 32.7788 19.7735C33.9817 25.8666 30.1657 31.5975 24.0579 32.7872C21.2581 33.3354 18.6034 32.8182 16.1665 31.3079C15.928 31.1527 15.7206 31.1217 15.4406 31.2044C14.2274 31.5665 13.0037 31.8975 11.7179 32.2596ZM25.9141 28.8355C27.1584 28.8458 28.2058 28.3079 28.7761 27.4907C29.0976 27.0355 29.0561 26.4355 28.6413 26.0217C27.9984 25.3597 27.3555 24.7183 26.6918 24.0769C26.3185 23.7149 25.8207 23.7252 25.4371 24.0769C25.1571 24.3356 24.8875 24.6045 24.6282 24.8838C24.4208 25.1011 24.2031 25.1424 23.9231 25.008C22.015 24.0976 20.6048 22.6907 19.6819 20.7873C19.5367 20.4977 19.5885 20.2701 19.8167 20.0529C20.0966 19.7942 20.3663 19.5253 20.6255 19.2356C20.9781 18.8322 20.9573 18.3667 20.584 17.9839C19.9411 17.3322 19.2982 16.6805 18.6345 16.0391C18.2508 15.6667 17.6286 15.5943 17.2138 15.9046C16.4361 16.4943 15.8865 17.2288 15.7828 18.2322C15.6999 19.0908 15.8865 19.9184 16.208 20.7046C17.4316 23.7356 19.5782 25.9597 22.3572 27.6148C23.529 28.3079 24.7734 28.7734 25.9141 28.8355Z" fill="white"/>
</svg>
